# xmcd
#
# Track frame offsets: 
#        150
#        14158
#        27870
#        41495
#        55572
#        64583
#        77691
#        89733
#        103482
#        118406
#        131232
#        141568
#        158432
#        170349
#
# Disc length: 2441 seconds
#
# Revision: 0
# Processed by: cddbd v1.5.1PL0 Copyright (c) Steve Scherf et al.
# Submitted via: ExactAudioCopy v0.95a5
#
DISCID=c709870e
DTITLE=Roberto Goyeneche - Roberto Goyeneche Interpreta a Homero Espos
DTITLE=ito
DYEAR=1989
DGENRE=Tango
TTITLE0=Farol
TTITLE1=Percal
TTITLE2=Margo
TTITLE3=Afiches
TTITLE4=Ese Muchacho Troilo
TTITLE5=Tristezas de la Calle Corrientes
TTITLE6=Naranjo en Flor
TTITLE7=El Milagro
TTITLE8=Trenzas
TTITLE9=Maquillaje
TTITLE10=Pedacito de Cielo
TTITLE11=Chau... No Va Mas!
TTITLE12=A Bailar
TTITLE13=Que me Van a Hablar de Amor
EXTD=
EXTT0=
EXTT1=
EXTT2=
EXTT3=
EXTT4=
EXTT5=
EXTT6=
EXTT7=
EXTT8=
EXTT9=
EXTT10=
EXTT11=
EXTT12=
EXTT13=
PLAYORDER=
